<?xml version="1.0" encoding="UTF-8"?>
<!DOCTYPE svg PUBLIC "-//W3C//DTD SVG 1.1//EN" "http://www.w3.org/Graphics/SVG/1.1/DTD/svg11.dtd">
<svg xmlns="http://www.w3.org/2000/svg" version="1.1" width="500px" height="132px" style="shape-rendering:geometricPrecision; text-rendering:geometricPrecision; image-rendering:optimizeQuality; fill-rule:evenodd; clip-rule:evenodd" xmlns:xlink="http://www.w3.org/1999/xlink">
<g><path style="opacity:1" fill="#ffffff" d="M -0.5,-0.5 C 166.167,-0.5 332.833,-0.5 499.5,-0.5C 499.5,43.5 499.5,87.5 499.5,131.5C 332.833,131.5 166.167,131.5 -0.5,131.5C -0.5,87.5 -0.5,43.5 -0.5,-0.5 Z"/></g>
<g><path style="opacity:1" fill="#000000" d="M 193.5,22.5 C 193.176,26.5546 193.509,30.5546 194.5,34.5C 195.107,34.3764 195.44,34.0431 195.5,33.5C 207.35,25.8288 219.35,18.3288 231.5,11C 232.833,10.3333 234.167,10.3333 235.5,11C 241.374,14.7682 247.374,18.2682 253.5,21.5C 258.799,18.8478 263.799,15.6811 268.5,12C 270.167,11.3333 271.833,11.3333 273.5,12C 300.996,30.249 328.663,48.249 356.5,66C 357.833,67 357.833,68 356.5,69C 354.402,68.9678 352.402,68.3011 350.5,67C 324.409,49.2044 297.909,32.0377 271,15.5C 267.51,17.651 264.01,19.8176 260.5,22C 258.993,22.8373 258.493,24.0039 259,25.5C 281.127,39.4737 302.96,53.8071 324.5,68.5C 324.167,69.5 323.5,70.1667 322.5,70.5C 292.809,51.797 263.143,33.1304 233.5,14.5C 206.036,31.736 178.702,49.236 151.5,67C 148.89,68.4814 146.223,69.6481 143.5,70.5C 143.238,69.0222 143.571,67.6888 144.5,66.5C 153.833,60.5 163.167,54.5 172.5,48.5C 173.498,39.5246 173.832,30.5246 173.5,21.5C 180.354,21.176 187.021,21.5093 193.5,22.5 Z"/></g>
<g><path style="opacity:1" fill="#eaeaed" d="M 369.5,90.5 C 376.655,90.1527 379.821,93.486 379,100.5C 374.667,107.167 370.333,107.167 366,100.5C 365.182,96.4695 366.349,93.1361 369.5,90.5 Z"/></g>
</svg>
